<?xml version="1.0" encoding="utf-8"?>
<!-- Generator: Adobe Illustrator 28.2.0, SVG Export Plug-In . SVG Version: 6.00 Build 0)  -->
<svg version="1.1" id="Layer_1" xmlns="http://www.w3.org/2000/svg" xmlns:xlink="http://www.w3.org/1999/xlink" x="0px" y="0px"
	 viewBox="0 0 512 512" style="enable-background:new 0 0 512 512;" xml:space="preserve">
<style type="text/css">
	.st0{fill:#D6ABFF;}
	.st1{fill:#B58CE5;}
	.st2{fill:#FAF7F3;}
	.st3{fill:#58C1DE;}
	.st4{fill:#510088;}
	.st5{fill:#FBF9F5;}
	.st6{fill:#FCBD78;}
	.st7{fill:#660032;}
	.st8{fill:#AA52FF;}
	.st9{fill:#E7D2FF;}
	.st10{fill:#5BA4DA;}
	.st11{fill:#0071BE;}
	.st12{fill:#39A6D3;}
	.st13{fill:#D18F4E;}
	.st14{fill:#0879C3;}
</style>
<g>
	<g>
		<path class="st0" d="M465.7,261.5c0,82.4-47.6,153.7-116.7,188c-4.2,2.1-8.6,4.1-12.9,5.9c-1.8,0.7-3.6,1.5-5.4,2.1
			c-2,0.8-4.1,1.5-6.2,2.2c-3.6,1.2-7.3,2.4-10.9,3.4c-5.5,1.6-11.1,2.9-16.8,4c-16.9,0.7-35.7,1-55.4,1c-7.2,0-14.3-0.1-21.2-0.1
			c-11-1.9-21.7-4.6-32-8.2c-1.9-0.7-3.8-1.3-5.7-2c-0.8-0.3-1.5-0.6-2.3-0.9c-0.5-0.2-1-0.4-1.5-0.6c-2.4-1-4.9-2-7.2-3
			c-1.9-0.8-3.8-1.7-5.6-2.6c-0.5-0.2-1-0.5-1.5-0.7c-1.9-0.9-3.7-1.8-5.5-2.8c-0.1-0.1-0.2-0.1-0.3-0.2c-1.2-0.6-2.5-1.3-3.7-2
			c-0.8-0.4-1.6-0.9-2.4-1.3c-63.3-36.1-106-104.2-106-182.3c0-31.6,7-61.6,19.5-88.4c4-8.6,8.6-16.9,13.6-24.8
			c12.6-19.5,28.3-36.9,46.4-51.2c0.2-0.1,0.4-0.3,0.6-0.4c0.7-0.5,1.4-1.1,2.1-1.6c1.7-1.3,3.3-2.5,5-3.7c2.4-1.8,4.9-3.5,7.4-5.1
			c9.3-6.1,19.1-11.5,29.4-16.1c0.8-0.4,1.7-0.7,2.5-1.1c19.2-8.3,40-13.8,61.7-16c1.9-0.2,3.9-0.4,5.8-0.5c1-0.1,2-0.1,3-0.2
			c1.3-0.1,2.6-0.1,4-0.2c2.9-0.1,5.8-0.2,8.7-0.2c8.7,0,17.3,0.5,25.7,1.6C385.4,66,465.7,154.4,465.7,261.5z"/>
		<g>
			<path class="st1" d="M375.8,456.5c0,4.8-32.5,8.8-79.1,10.7c-16.9,0.7-35.7,1-55.4,1c-7.2,0-14.3-0.1-21.2-0.1
				c-64.2-0.9-113.3-5.7-113.3-11.6c0-3.4,16.4-6.4,42.7-8.6c1.1-0.1,2.2-0.2,3.4-0.3c1.7-0.1,3.5-0.3,5.3-0.4c0.2,0,0.4,0,0.5,0
				c3.8-0.3,7.7-0.5,11.7-0.7c3-0.2,6.1-0.3,9.2-0.5c2.5-0.1,5.1-0.2,7.7-0.3c0.8,0,1.6-0.1,2.4-0.1c0.4,0,0.9,0,1.4-0.1
				c2.6-0.1,5.2-0.2,7.9-0.3c13.3-0.4,27.5-0.6,42.3-0.6c12.7,0,24.9,0.2,36.6,0.4c2,0.1,4,0.1,6,0.2c0.9,0,1.7,0.1,2.6,0.1
				c0.5,0,1.1,0,1.6,0.1c0.3,0,0.6,0,0.9,0c0.4,0,0.8,0,1.2,0c1.9,0.1,3.8,0.1,5.7,0.2c4.4,0.2,8.6,0.4,12.8,0.6
				c6.7,0.3,13,0.7,18.9,1.2c1.6,0.1,3.2,0.2,4.8,0.4c1.1,0.1,2.2,0.2,3.2,0.3c4.8,0.4,9.2,0.9,13.3,1.3
				C365.8,451.4,375.8,453.9,375.8,456.5z"/>
			<g>
				<g>
					<path class="st2" d="M92.9,316.1c13.9,5.9,16.2,2.7,16.2,2.7l-1.7-12l11.6-1.4l6.3-0.8l7.1,6.2l10.4-14.2l4.1-16.1l61.5,19.6
						l53.9,48.9l23.6-36.4l8.1-15.6l28.4-14.3l3.6-3.7l19.2,14.8l16.1-12.2l7.5,4c0,0-22.8,32-23.3,42.4
						c-0.5,10.4,6.2,19.5,6.2,19.5l-18.5-1.1l1.4,70.2c0,0-40.6,9.6-94.6,12.9s-101.9-18.4-101.9-18.4l0-47.3c0,0-16.1,7.7-32.3-6.1
						C89.7,343.9,92.9,316.1,92.9,316.1z"/>
					<path class="st2" d="M165.8,155.4l-2.4-22.2c0,0-35.2-2.8-35.2-33.6s42.4-33.9,42.4-33.9s11.9-27.2,37.9-24.7
						s35.1,14.6,35.1,14.6s32.9-9.3,44.4,7.3c11.5,16.5,9.5,32.3,2.4,44.6s-19.3,14.6-19.3,14.6l5.4,24L165.8,155.4z"/>
					<path class="st2" d="M367.7,290.4l13.8-23.6l-1.7-9.5l-0.7-9.8c0,0-7.2-8.4-3-14.3c4.1-5.9,32.1-3.9,36.2,0
						c4.1,3.9-4.3,8.4-4.3,8.4l3.5,44c0,0,20.2,30.2,21.6,42.8s-7.6,19.4-11.5,19.1c-3.9-0.3-62.6-2.4-67-4.1
						c-4.4-1.7-10.6-3.6-9-15.4S367.7,290.4,367.7,290.4z"/>
					<path class="st3" d="M150.8,283c-19.7-31.4-2.4-99.4-2.4-99.4s-22.2-12-20-28c2.1-16,25.3-8.1,29.1-5.3
						c3.9,2.8,9.9,7.9,9.9,7.9s35.5-20.6,73.7-19.4s45.9,7.6,45.9,7.6s12.4-13.1,25.1-7.6c12.6,5.5,0,24.2,0,24.2
						s20.5,17.2,13.9,36.8s-6.6,19.7-6.6,19.7s4.3,20.6,3.1,41.9c-1.2,21.3-1.2,21.3-1.2,21.3s-16.7,17.8-75.2,19.4
						C187.6,303.8,150.8,283,150.8,283z"/>
					<path class="st4" d="M139,160.8c2.1-8.5,21.1,1.4,19.7,8C157.1,175.5,138.2,164,139,160.8z"/>
					<circle class="st5" cx="205.8" cy="197.5" r="33.3"/>
					<path class="st6" d="M233.5,223.8c12-15.9,27.2-12,38.5-3.4c11.3,8.6,9.5,18.8,8.5,22.3c-1,3.6-6.3,7.2-13.2,2.4
						s-17.2-2.7-25.5-1.5c-8.3,1.2-7.1,0.5-9.5-5.7C229.8,231.9,233.5,223.8,233.5,223.8z"/>
					<path class="st5" d="M238,249.2c13.4,23,16.2,12.6,16.3,13.3c0.1,0.7,4.7,7,11.8-0.3c7.1-7.4,4.9-16.9,4.9-16.9
						s-5.5-3.2-13.9-3.5S238,249.2,238,249.2z"/>
					<path class="st6" d="M107,322.9c-22.1-11.8-17.9-29.8-17.8-35.4c0.2-5.6,7.8-17.7,20.2-16.9s13.1,8,13.1,8s3.2-4.6,6.8,5.9
						c3.7,10.4-2.7,16.2-4.3,17.1c-1.7,0.9-4.1,2.8-4.4,3.4c-0.3,0.6-5.5,1-11,1.9s1.9,19.4,1.9,19.4L107,322.9z"/>
					<path class="st6" d="M363.5,282.6c-6.9-30.1,13-27.1,16.2-25.4c3.2,1.7,2.1,8.8,1.7,9.5S367,285.3,367,285.3L363.5,282.6z"/>
					<path class="st6" d="M395.4,268.3c1.6-17,12.5-14,17.4-13.1c4.9,0.9,7.2,2.5,6.3,9.1c-0.8,6.6-3.2,9.6-3.2,9.6s4.7,4.2,2.7,8.8
						c-2,4.6-12,8-15.5,5.5c-3.5-2.5-7.6-6.5-7.4-7.6c0.2-1.1,2.1-8.8,2.1-8.8L395.4,268.3z"/>
					<path class="st7" d="M373.1,296.4h34.8l15.7,30.1c2.3,4.4-0.9,9.6-5.8,9.6h-57.8c-5.1,0-8.3-5.7-5.5-10L373.1,296.4z"/>
					<circle class="st8" cx="369" cy="323.8" r="4.7"/>
					<circle class="st8" cx="409.5" cy="328" r="4.7"/>
					<circle class="st8" cx="389.2" cy="322.8" r="7.2"/>
					<circle class="st8" cx="399.3" cy="307.2" r="2.9"/>
					<circle class="st8" cx="381.3" cy="309.2" r="3.2"/>
					<path class="st9" d="M115.9,331.3c24.1,30.6,42.5,14.9,42.5,14.9l1.4,72.1l-21.7-7.3l3.1-46.7c0,0-22.9,9.4-35.4-6.7
						c-12.5-16.1-12.7-40.1-12.7-40.1l17.4,4.9L115.9,331.3z"/>
					<path class="st9" d="M167.9,288.4c-2.6,7.2-4.5,18.4-4.5,18.4l-7.2-3.6l-20,20l-7.7-14.5l13.3-12.1l5-15.3L167.9,288.4z"/>
					<path class="st9" d="M274.1,356.2c12.1-0.3,55.3-19,55.3-19l2.5,9.5l18-0.5l-5.9-13.5l7.4-17l-21.4-1.2l-2.2-8.5l-20.2,10.3
						l4.8,10.5l-16.2,16.5L274.1,356.2z"/>
					<polygon class="st9" points="239.1,354.4 240,429.5 255.7,428.3 254.7,358.3 					"/>
					<path class="st10" d="M207.3,299.9c0.7,0.6,35.3,31.1,35.3,31.1l15.1-30.5L207.3,299.9z"/>
					<path class="st10" d="M262.4,303c0.2,1,15.2,23.4,16,22.9c0.8-0.5,16.6-30.9,16.6-30.9L262.4,303z"/>
					<polygon class="st11" points="241.7,330.3 260.1,301.3 278.7,324.9 263,352.3 					"/>
					<path class="st12" d="M131.7,151.1c-2,15.8,12.2,23.3,28.5,21c0,0-7.6,33.2-7,58.6c0.7,25.4,9.2,55.8,9.2,55.8l-13.6-1.1
						c0,0-5.6-39.3-6.5-50.9c-0.9-11.6,4.7-53.2,4.7-53.2s-9.4-4.5-16.6-13.2C123.1,159.6,131.7,151.1,131.7,151.1z"/>
					<path class="st12" d="M167.9,188.9c0,0-7.9,24.7,11,43.2s46.3,5.7,46.3,5.7s-1,5.3,2.4,11c2,3.5,2.8,5.6,2.8,5.6
						s0.7,6.7,5.7,12.5c5.1,5.9,13.3,1,13.3,1l-5.7-6.2l-4.6-16.5c0,0-4.8,2.1-7.8-3.5c-2.9-5.6-1.5-16.5-1.5-16.5
						s-23.9,15.2-39.9,5.6s-20.3-26.4-20.3-26.4L167.9,188.9z"/>
					<path class="st12" d="M243.1,196.6c7.9,1.8,13.3-1,13.2,0c-0.1,1,5.9,19.1,5.9,19.1l-24.2-1.9L243.1,196.6z"/>
					<path class="st12" d="M318.4,220.7c-7.2,17.6-39.1,13.6-39.1,13.6s-1.3-12.4-0.7-11.6s6.2,5.5,16.9,2.2
						c10.7-3.3,21-10.4,21-10.4L318.4,220.7z"/>
					<path class="st13" d="M238,220.8c2.4,22,15.9,13.8,24.8,15.6c8.9,1.8,12.9,6.7,15.2,3.6s2.2-3.1,2.2-3.1s-0.8,10.2-1.5,10.3
						c-0.7,0.1-10.3-5.5-15.9-5.4c-5.7,0-17.2,3.1-22.6,3c-5.3-0.1-9.7-0.6-10.2-7.5S238,220.8,238,220.8z"/>
					<path class="st13" d="M97.1,277.1c-5.3,19.1,2.7,25.3,12.6,21.3s11.7,7.8,11.7,7.8s-7.2-1.7-11.7,0.7s-0.6,17-0.6,17
						s-12-3.6-17-15s-3.6-26.2-2.2-26.9C91.3,281.3,97.1,277.1,97.1,277.1z"/>
					<path class="st14" d="M106.8,306.9c0,0,2.8,27.1,10.3,27.8s-0.9-29.1-0.9-29.1L106.8,306.9z"/>
					<path class="st3" d="M157,421.3c0,0,15.4,35,83.5,31.5s78.5-33,78.5-33S279.1,431,264.6,431C250.1,431,157,421.3,157,421.3z"/>
					<path class="st6" d="M151.4,455.6c-1.7-15.2,19-17.6,19-17.6l29.1,10.6c0,0-19,12-28.7,12.8
						C161.1,462.3,151.4,455.6,151.4,455.6z"/>
					<path class="st6" d="M333.7,455c1.7-15.2-22.6-20.9-22.6-20.9l-25.5,14c0,0,19.1,12,28.7,12.8C323.9,461.7,333.7,455,333.7,455
						z"/>
					<path class="st12" d="M161.4,429.3c52.7,22.2,148.7,3.3,148.7,3.3l6.4-12.8c0,0-51.2,10.8-61,10.8s-99.8-10.8-99.8-10.8
						L161.4,429.3z"/>
					<path class="st13" d="M161.3,442.7c22.9,3.8,1.8,20.5,3.1,20.5s34.3-14,34.2-13.9c-0.1,0.1-31.2-12.8-31.2-12.8L161.3,442.7z"
						/>
					<path class="st13" d="M319,440.8c-22.9,3.8-1.8,20.5-3.1,20.5c-1.3,0-34.3-13.9-34.2-13.9c0.1,0.1,31.2-12.9,31.2-12.9
						L319,440.8z"/>
					<path class="st13" d="M365.6,262c6.6,11.5,12.7,8,12.6,8.2c0,0.1-11.6,13.8-11.6,13.8l-3.6-13.8L365.6,262z"/>
					<path class="st13" d="M396.5,258.7c8.9,12.1,21.5,5.9,21.5,5.9l0.6,7.1c0,0-11.6-3.1-15,0.6c-3.4,3.7,2.9,9.1,7.4,10
						c4.5,0.9,7.2-1.4,7.2-1.1s-2.4,7.6-3.3,8.1s-13.7-0.3-13.7-0.3s-4.6-8.6-3.8-9.2c0.8-0.6-1-14.5-1-14.5V258.7z"/>
					<path class="st9" d="M144.9,73.2c-17.4,37.6,25.2,37.3,25.2,37.3s-2.4-8.8,0.5-15.8c0,0,2.3,12.2,24.6,9s28.4-11.9,28.4-11.9
						s-17.1,19.8-25.3,23.7c-8.3,3.9-14.7,0-14.7,0l3.1,33.6l-21,6.2l-1-20.4c0,0-39-4.4-38.5-33.6S144.9,73.2,144.9,73.2z"/>
					<path class="st9" d="M254.8,94.7c18.8,25.6,42.5,1.5,42.5,1.5s-5.3,13.3-9.8,18.1c-1.1,1.2-2.2,1.2-4.1,1.9
						c-6.8,2.7-14.6,1.9-20.8-1.9l-14.4-7.5L254.8,94.7z"/>
					<ellipse class="st5" cx="292.4" cy="193.9" rx="34.1" ry="33.3"/>
				</g>
				<g>
					<g>
						<path class="st4" d="M244.8,196.9c0-1.4-0.1-2.8-0.3-4.2c-2.4-19.2-18.8-34.2-38.7-34.2c-19,0-34.9,13.7-38.3,31.8
							c-0.4,2.3-0.7,4.7-0.7,7.1c0,21.5,17.5,39,39,39c8.1,0,15.6-2.5,21.8-6.7c0.7-0.4,1.3-0.9,2-1.4c1.1-0.9,2.2-1.8,3.2-2.7
							c2.3-2.2,4.4-4.8,6.1-7.5c0.8-1.3,1.6-2.7,2.2-4.1c0.1-0.2,0.2-0.3,0.2-0.5c1.9-4.3,3.1-9,3.4-14c0-0.7,0.1-1.3,0.1-2
							C244.8,197.3,244.8,197.1,244.8,196.9z M205.8,165.2c17.8,0,32.4,14.5,32.4,32.4c0,17.8-14.5,32.4-32.4,32.4
							c-17.8,0-32.4-14.5-32.4-32.4C173.5,179.7,188,165.2,205.8,165.2z"/>
						<path class="st4" d="M291.7,232.8c-5.3,0-10.4-1-15.3-3.1l2.6-6.1c4,1.7,8.3,2.6,12.7,2.6c17.8,0,32.4-14.5,32.4-32.4
							c0-17.8-14.5-32.4-32.4-32.4c-17.8,0-32.4,14.5-32.4,32.4c0,7.4,2.4,14.4,7,20.2l-5.2,4.1c-5.5-7-8.5-15.4-8.5-24.3
							c0-21.5,17.5-39,39-39c21.5,0,39,17.5,39,39C330.6,215.4,313.1,232.8,291.7,232.8z"/>
						<path class="st4" d="M249,199.9c-4.9,0-8.5-1.5-8.8-1.6l2.6-6.1l-1.3,3l1.3-3.1c0.1,0,6.1,2.4,12,0l2.5,6.1
							C254.4,199.5,251.5,199.9,249,199.9z"/>
						<path class="st4" d="M283.6,234.6c-0.1-0.9-0.2-1.8-0.4-2.7c-0.1-0.5-0.2-1-0.4-1.5c-0.4-1.5-1.2-3.4-2.3-5.4
							c-0.2-0.3-0.4-0.7-0.6-1c-0.1-0.2-0.2-0.3-0.3-0.5c-1.3-1.9-2.9-3.8-5.1-5.6c-2.5-2-5.5-3.6-8.8-4.7h0
							c-0.4-0.1-0.9-0.3-1.3-0.4c-1.1-0.3-2.2-0.6-3.4-0.8c-1.3-0.2-2.7-0.4-4.1-0.5c-0.2,0-0.5,0-0.7,0c-6.2-0.3-11.1,0.5-14.8,2
							c-0.4,0.1-0.8,0.3-1.1,0.5c-4.2,1.9-7,4.5-8.7,6.9c-1.1,1.5-2,3.2-2.7,4.9c-0.5,1.3-0.9,2.7-1.2,4c-0.9,4.3-0.5,8.6,0.6,11.7
							c1.3,3.5,3.9,5.6,7.8,6.4c0.4,0.1,0.9,0.1,1.4,0.2c0.7,0.1,1.4,0.1,2.1,0.1h0c0.1,0,0.2,0,0.4,0c0.9,0,1.8-0.1,2.8-0.2
							c2.3-0.2,4.9-0.6,7.6-1c1.1-0.2,2.2-0.3,3.3-0.5c1.2-0.2,2.5-0.3,3.9-0.5c1-0.1,1.9-0.2,2.7-0.2c3.3,0,5.5,0.8,7.5,1.6
							c0.2,0.1,0.4,0.2,0.6,0.2c0.9,0.4,1.9,0.8,3,1.1c0.8,0.2,1.7,0.4,2.7,0.4c0.1,0,0.2,0,0.4,0c1.6-0.1,3.3-0.6,5.2-1.9
							C282.8,245,284.2,240.1,283.6,234.6z M275.8,241.9c-1.4,1-1.9,0.9-4.8-0.3c-2.5-1-5.8-2.4-10.7-2.4c-1.1,0-2.2,0.1-3.5,0.2
							c-2.6,0.3-5.1,0.7-7.4,1c-10,1.5-13.9,1.7-15-1.3c-1.1-3.1-1.2-9.6,2.4-14.4c0.5-0.6,1-1.2,1.5-1.7c1.8-1.7,4-3,6.6-3.8
							c3.1-1,6.7-1.3,10.9-1.1c8.5,0.5,13.6,3.6,16.6,7c2.4,2.6,3.5,5.4,4,7.2c1.1,3.9,0.7,7.1,0,8.7
							C276.2,241.4,276,241.7,275.8,241.9z"/>
						<path class="st4" d="M246.2,216.3c-8.9,17.8,12.7,21.8,21.4,15.8c8.7-6,3.4-13.4,3.4-13.4l-13.3-2.9L246.2,216.3z"/>
						<path class="st4" d="M249.5,269.2c-2.1,0-4.1-0.7-5.8-2.1c-6.6-5.4-7.8-20.3-7.9-22l6.6-0.5l-3.3,0.2l3.3-0.2
							c0.4,5.3,2.2,14.6,5.5,17.4c0.6,0.5,1.2,0.7,1.9,0.6c0.5-0.1,1.1-0.2,1.8-1.1c2.7-3.5,2.5-13,1.8-18.2l6.5-0.9
							c0.2,1.7,2.1,16.4-3.1,23.2c-1.6,2.1-3.7,3.3-6.2,3.6C250.3,269.2,249.9,269.2,249.5,269.2z"/>
						<path class="st4" d="M260,269.4c-1.2,0-2.3-0.2-3.5-0.6c-3-0.9-4.9-2.8-5.1-3l4.6-4.8l0,0c0,0,1.2,1.1,2.8,1.5
							c1.8,0.5,3.4,0,5.1-1.5c4.1-3.9,4.3-12.5,4.1-15.5l6.6-0.6c0.1,0.6,1.2,14-6.1,20.9C265.8,268.2,263,269.4,260,269.4z"/>
						<g>
							<ellipse class="st4" cx="207.1" cy="203.5" rx="13.4" ry="14.2"/>
							<g>
								<ellipse class="st5" cx="210.8" cy="199.9" rx="3" ry="3.4"/>
							</g>
						</g>
						<g>
							<ellipse class="st4" cx="276.4" cy="201.7" rx="13.4" ry="14.2"/>
							<g>
								<ellipse class="st5" cx="280.1" cy="198.1" rx="3" ry="3.4"/>
							</g>
						</g>
						<path class="st4" d="M249,305.4c-16.9,0-37.8-3-62.4-8.9c-21.8-5.2-38.5-11-38.7-11l-1.6-0.6l-0.5-1.7
							c-0.2-0.6-3.9-14.2-5.8-33.6c-1.1-11.4-1.4-22.5-0.7-33c0.7-11.7,2.6-22.5,5.5-32.3c-1.5-0.4-3.2-1-5-1.9
							c-4.4-2.2-10.4-6.6-13.4-15.5c-3.2-9.6-0.8-15.4,1.9-18.6c3.8-4.6,10.5-6.7,18.3-5.6c10.6,1.5,17.4,7.7,20.5,11.2
							c6.6-3.3,25.6-12,49.3-16.5c17.1-3.3,33-3.7,47.3-1.2c18.1,3.2,33.6,11,46.2,23.2l-4.6,4.7c-21.2-20.6-50.7-27.4-87.7-20.3
							c-27.9,5.4-49.7,17-49.9,17.1l-2.7,1.5l-1.7-2.6c-0.1-0.1-6.1-9-17.7-10.6c-5.4-0.7-10,0.5-12.3,3.3
							c-2.8,3.4-1.9,8.6-0.7,12.3c4.2,12.6,16.1,13.5,16.6,13.5l4.3,0.2l-1.4,4.1c-7.7,23.2-7.3,48.7-5.6,66.1
							c1.5,15.1,4.1,26.8,5.2,31c4.7,1.6,18.9,6.1,36.5,10.3c28.3,6.8,52.5,9.7,69.9,8.3c21.8-1.7,37.2-6.6,46.3-10.4
							c7.2-3,11.7-5.9,13.6-7.2c3.5-38.7-2.4-62.7-2.5-63l6.4-1.6c0.3,1,6.4,26,2.5,66.7l-0.1,1.4l-1.1,0.9
							c-0.2,0.2-5.3,4.3-15.9,8.8c-9.6,4.1-25.9,9.3-48.7,11.1C255.5,305.3,252.3,305.4,249,305.4z"/>
						<path class="st4" d="M311.9,166.1l-3.6-5.5c3.7-2.4,7.4-9,6.6-13.6c-0.2-1-0.7-4-6.4-5.2c-13.2-2.9-20.6,6.3-20.9,6.7l-5.2-4
							c0.1-0.1,2.6-3.4,7.2-6.1c4.3-2.5,11.3-5.1,20.3-3c8.6,1.9,10.9,7.4,11.4,10.5c0.6,3.6-0.2,7.8-2.2,11.8
							C317.3,161.2,314.7,164.3,311.9,166.1z"/>
						<path class="st4" d="M162.7,158.4l-1.5-21.9c-3.3-0.1-8.6-0.5-14.1-2.6c-8.4-3.1-18.8-10.5-21-28c-0.8-6.2-0.4-12,1.2-17.1
							c1.4-4.7,3.8-8.9,7.2-12.5c8.9-9.6,22.8-13,33.5-13c1.2-2.4,3.5-6.5,7.4-10.7c5.6-5.9,15.5-13,31.3-13.6
							c23.2-0.8,33.6,9.1,37.4,14.1c3.3-1.4,9.4-3.6,16.5-4.1c14.5-1.2,26.2,4.7,33.9,16.9c4.6,7.3,6.6,14.9,6.1,22.9
							c-0.4,6.7-2.7,13.4-6.7,19.3c-3.1,4.7-7.3,8.8-11.6,11.5c-2.8,1.7-5.6,2.9-8.3,3.3l5.4,19l-6.4,1.8l-7.9-28.1l5.1,0.9
							c4.5,0.8,12.6-3.6,18.2-12.1c3.5-5.2,10.5-19,0.4-35c-6.3-10.1-15.6-14.8-27.5-13.9c-9.3,0.7-16.8,4.6-16.9,4.7l-3.1,1.6
							l-1.4-3.1c-0.1-0.2-1.9-3.6-6.6-6.9c-6.5-4.5-15.6-6.6-26.3-6.3c-10.8,0.4-19.7,4.2-26.6,11.3c-5.2,5.4-7.2,10.8-7.2,10.8
							l-0.8,2.3L170,70c-9.1-0.5-22.6,2.1-30.6,10.8c-5.6,6.1-7.9,14.2-6.6,24.3c1.4,11.4,7,19,16.7,22.6c7.4,2.8,14.4,2.1,14.5,2.1
							l3.4-0.3l1.9,28.5L162.7,158.4z"/>
						<path class="st4" d="M169.1,101.4c0.4,0.8,0.8,1.6,1.3,2.3c0.4,0.7,0.9,1.4,1.3,2.1c0.9,1.3,1.9,2.4,2.9,3.4
							c1,1,2.1,1.7,3.3,2.3c1.2,0.6,2.4,1.1,3.8,1.4c0.1,0,0.2,0.1,0.2,0.1l0.3,0.1l0.5,0.1l0.5,0.1l0.5,0.1
							c0.4,0.1,0.7,0.1,1.1,0.2c0.4,0,0.7,0.1,1.1,0.1c0.4,0.1,0.7,0.1,1.1,0.1l1.1,0.1c0.4,0,0.8,0,1.2,0c0.4,0,0.8,0,1.2,0
							c1.6,0,3.2,0,4.9,0c0.4,0,0.8,0,1.3,0c0.4,0,0.9,0,1.3,0c0.9,0,1.7,0,2.7,0.1c-0.7,0.6-1.4,1.1-2.1,1.7
							c-0.4,0.3-0.7,0.5-1.1,0.7c-0.4,0.2-0.8,0.4-1.2,0.7c-1.6,0.8-3.2,1.5-5,2c-0.4,0.1-0.9,0.2-1.3,0.3c-0.4,0.1-0.9,0.2-1.3,0.3
							c-0.5,0.1-0.9,0.1-1.4,0.2c-0.5,0.1-0.9,0.1-1.4,0.1c-0.5,0-0.9,0-1.4,0c-0.2,0-0.5,0-0.7,0l-0.7-0.1l-0.7-0.1l-0.7-0.1
							l-0.7-0.1l-0.4-0.1c-0.1,0-0.2-0.1-0.4-0.1c-1.9-0.5-3.8-1.3-5.5-2.5c-1.7-1.2-3.1-2.7-4.1-4.5c-1-1.7-1.6-3.6-1.8-5.5
							c-0.1-0.9-0.1-1.9-0.1-2.8C168.7,103.2,168.8,102.2,169.1,101.4z"/>
						<path class="st4" d="M254.8,94.7c0.1,0.9,0,1.9-0.1,2.8c-0.1,0.9-0.3,1.9-0.6,2.8c-0.5,1.8-1.3,3.6-2.2,5.2
							c-1,1.7-2.2,3.2-3.7,4.6c-1.4,1.4-3.1,2.5-4.9,3.5c-1.8,0.9-3.8,1.5-5.8,1.8l-0.7,0.1l-0.4,0l-0.4,0c-0.5,0-1,0-1.5,0.1
							c-0.2,0-0.5,0-0.7,0l-0.7,0l-0.7-0.1c-0.2,0-0.5-0.1-0.7-0.1c-0.5-0.1-1-0.2-1.4-0.3c-0.5-0.1-0.9-0.3-1.4-0.4
							c-0.5-0.1-0.9-0.3-1.4-0.5c-0.4-0.2-0.9-0.4-1.3-0.5c-0.4-0.2-0.8-0.4-1.3-0.6c-0.4-0.2-0.8-0.5-1.2-0.7
							c-0.8-0.5-1.5-1.1-2.2-1.7c1-0.1,1.9-0.1,2.8-0.1c0.5,0,0.9,0,1.3,0c0.4,0,0.9,0,1.3,0c0.4,0,0.9,0,1.3-0.1c0.2,0,0.4,0,0.6,0
							c0.2,0,0.4,0,0.6-0.1c0.4,0,0.8-0.1,1.2-0.1c0.4-0.1,0.8-0.1,1.2-0.2l0.6-0.1l0.6-0.1c0.4-0.1,0.8-0.1,1.1-0.2
							c0.4-0.1,0.7-0.2,1.1-0.3l0.3-0.1l0.3-0.1l0.5-0.2c1.4-0.4,2.8-0.9,4.1-1.6c2.6-1.3,5.1-3.1,7.4-5.3c1.2-1.1,2.3-2.3,3.5-3.6
							c0.6-0.6,1.2-1.3,1.7-2L254.8,94.7z"/>
						<path class="st4" d="M256.1,362c-0.3,0-0.6,0-0.9-0.1l-0.2,0c-26.2-8-53.7-24.9-54.9-25.6l-2.3-1.4l3.8-10.1l-13.2,1l-1-0.8
							c-14.5-11.7-45.6-26.9-45.9-27l-2-1l0.1-2.2c0.7-12,5.5-17.5,6.1-18l4.8,4.5l0,0c0,0-3.2,3.7-4.1,11.8
							c7.1,3.6,30.8,15.6,44.1,26l21-1.6l-5.5,14.6c7,4.1,28.5,16.3,49.1,22.9c1.5-1.9,5.2-6.8,13.4-19.3
							c13.8-21,23.5-41.8,23.6-42.1l6,2.8c-0.1,0.2-10,21.5-24.1,42.9c-5.9,9-10.3,15.3-13,18.9C259.2,360.3,257.9,362,256.1,362z"
							/>
						
							<rect x="220.3" y="390.8" transform="matrix(7.617215e-03 -1 1 7.617215e-03 -140.3076 646.8065)" class="st4" width="70.9" height="6.6"/>
						<path class="st4" d="M256,358.9c4.4-1.6,16.1-6.1,20.3-8.5c4.1-2.4,8.2-5,12.1-7.8c3.9-2.8,7.7-5.8,11.4-9
							c1.8-1.6,3.7-3.2,5.4-4.8c0.9-0.8,1.8-1.6,2.6-2.5l1.3-1.3l0.6-0.6l0.6-0.6l-0.3,4.3c-0.3-0.4-0.6-0.8-0.9-1.2
							c-0.3-0.4-0.6-0.8-0.8-1.2c-0.5-0.8-1.1-1.7-1.5-2.5c-0.5-0.9-0.9-1.8-1.4-2.7c-0.2-0.5-0.4-0.9-0.6-1.4
							c-0.1-0.2-0.2-0.5-0.3-0.7l-0.1-0.4l-0.1-0.2l-0.1-0.2l-1.1-3.3l3.4-0.9c1.7-0.5,3.5-1,5.2-1.6c1.7-0.6,3.4-1.3,5-2.1
							c1.6-0.8,3.3-1.6,4.9-2.5c0.8-0.5,1.6-0.9,2.3-1.4c0.4-0.2,0.8-0.5,1.1-0.7l0.5-0.4l0.5-0.3l-1.3,3.1v0
							c-0.1-0.5-0.2-1-0.3-1.5c-0.1-0.5-0.2-1-0.2-1.5c-0.2-1-0.3-2-0.5-3c-0.3-2-0.7-4-1-6l-0.3-1.5l-0.3-1.5c-0.2-1-0.4-2-0.6-3.1
							c-0.2-1-0.3-2.1-0.4-3.2c-0.1-1.1-0.2-2.2-0.1-3.4c0.9,0.7,1.7,1.6,2.4,2.4c0.7,0.9,1.3,1.8,1.9,2.7c0.6,0.9,1,1.9,1.5,2.9
							l0.3,0.7l0.3,0.8c0.2,0.5,0.4,1,0.6,1.5c0.8,2,1.5,4.1,2,6.2c0.3,1.1,0.5,2.1,0.7,3.2c0,0.3,0.1,0.5,0.1,0.8l0.1,0.8
							c0,0.3,0.1,0.5,0.1,0.8c0,0.3,0.1,0.5,0.1,0.8v0l0.3,1.9l-1.6,1.1l-0.4,0.3l-0.3,0.2l-0.6,0.4c-0.4,0.3-0.8,0.6-1.3,0.8
							c-0.9,0.5-1.7,1.1-2.6,1.6c-1.7,1-3.5,1.9-5.3,2.8c-1.8,0.9-3.7,1.6-5.6,2.3c-1.9,0.7-3.8,1.3-5.8,1.8l2.3-4.2l0.1,0.2
							l0.1,0.3c0.1,0.2,0.1,0.4,0.2,0.6c0.2,0.4,0.3,0.8,0.5,1.1c0.4,0.8,0.7,1.5,1.2,2.2c0.4,0.7,0.9,1.5,1.3,2.2
							c0.2,0.4,0.5,0.7,0.7,1.1c0.2,0.4,0.5,0.7,0.7,1l1.7,2.3l-1.9,2l-0.7,0.7l-0.7,0.7l-1.4,1.3c-0.9,0.9-1.8,1.7-2.7,2.6
							c-1.8,1.7-3.7,3.3-5.6,5c-3.8,3.2-7.7,6.3-11.8,9.3c-4.1,2.9-8.3,5.7-12.7,8.2c-4.4,2.5-16.4,7.1-21.3,8.9L256,358.9z"/>
						<path class="st4" d="M236.9,432.6c-15.5,0-30.7-1.1-45.4-3.2c-34.3-5-53.9-13.8-54.7-14.2l-2.1-0.9l3-51.1l6.6,0.4l-2.7,46.5
							c5.9,2.3,23.9,8.9,51.2,12.8c30.4,4.4,78.7,6.2,137.1-9.6c0.2-13.5,0.6-78.2-5-105.8l6.5-1.3c6.3,31.4,5.1,106.5,5.1,109.7
							l0,2.5l-2.4,0.7c-26.8,7.4-53.8,11.9-80.3,13.2C248.1,432.5,242.5,432.6,236.9,432.6z"/>
						<circle class="st4" cx="272.1" cy="379.5" r="5.3"/>
						<circle class="st4" cx="272.1" cy="405.7" r="5.3"/>
						
							<rect x="230.2" y="283.7" transform="matrix(0.665 -0.7468 0.7468 0.665 -163.2231 282.6669)" class="st4" width="6.6" height="79.1"/>
						<polygon class="st4" points="244.6,332.3 238.9,329 256.3,298.6 262.5,298.1 281.1,323.9 275.8,327.8 259.8,305.8 						"/>
						<path class="st4" d="M240.7,456.1c-0.1,0-0.1,0-0.2,0c-18.6,0-34.7-1.9-48-5.5c-10.8-3-19.7-7.1-26.5-12.4
							c-12.1-9.3-13.5-19-13.6-19.4l6.5-0.9l0,0c0,0.3,1.3,7.8,11.7,15.5c9.9,7.3,30,16.1,69.9,16.1c0.1,0,0.1,0,0.2,0
							c34,0,52.9-8.6,62.9-15.8c10.6-7.7,13.4-15.5,13.4-15.6l0,0l6.3,2.1c-0.1,0.4-3.2,9.5-15.3,18.5c-6.9,5.1-15.4,9.2-25.2,12.1
							C270.7,454.3,256.6,456.1,240.7,456.1z"/>
						<path class="st4" d="M382.3,255.2h-6.6v-11.7c-1.9-1.9-5.1-5.8-4.4-9.8c0.3-1.8,1.5-4.3,5.4-5.7l0.6-0.2l31.8,0.4
							c2.1,0,4.1,1,5.5,2.6c1.3,1.6,1.9,3.8,1.5,5.8c-0.5,2.6-2.1,4.9-4.8,6.8l0.1,10.6l-6.6,0.1l-0.1-14.3l1.7-1
							c1.9-1.1,3.1-2.3,3.3-3.4c0-0.1,0-0.3-0.1-0.4c-0.1-0.1-0.2-0.2-0.4-0.2l-30.5-0.4c-0.5,0.2-0.7,0.4-0.7,0.5
							c-0.1,0.7,1.4,3.1,3.3,4.7l1.1,1l0,1.5V255.2z"/>
						<path class="st4" d="M382.3,255.2c-0.1-0.1-0.2-0.2-0.3-0.4l-0.1-0.1c-0.7-0.8-1.6-1.5-2.5-2c-1.1-0.6-2.4-1.1-3.7-1.2
							c-0.6-0.1-1.2-0.1-1.8-0.1c-3,0.1-7.6,1.5-12.2,7.6c-3.4,4.4-3.6,10.9-0.7,18.7c0,0.1,0,0.1,0.1,0.2c0.7,1.8,1.5,3.5,2.2,4.9
							c0.2,0.4,0.4,0.8,0.6,1.2c0.4,0.7,0.7,1.3,1,1.8c0.6,1.1,1.1,1.7,1.1,1.8l0.7,1.1l1.1,1.7l1,1.5l2.7-4.4l11.5-18.9
							C385.7,264.2,385.3,258.9,382.3,255.2z M367,262.9c2.4-3.1,5-4.9,7.2-5c0,0,0.1,0,0.1,0c1.6,0,2.4,0.8,2.7,1.1l0.1,0.1
							c1.4,1.6,1.6,4,0.4,5.9l-3.2,5.3l-5.4,8.8c-2.3-4.8-4.6-11.5-2.3-15.5C366.7,263.4,366.8,263.1,367,262.9z"/>
						<path class="st4" d="M418.2,349.4c-0.1,0-0.1,0-0.2,0l-57.9-0.5c-6.6-0.1-12.5-3.5-15.8-9.2c-3.3-5.7-3.3-12.5,0-18.3
							l21.5-37.6l5.7,3.3l-21.5,37.6c-2.1,3.7-2.1,8,0,11.7c2.1,3.7,5.9,5.9,10.1,5.9l57.9,0.5c0,0,0.1,0,0.1,0
							c4.1,0,7.9-2.1,10-5.6c2.2-3.5,2.3-7.9,0.4-11.5l-17.8-34.4l5.9-3l17.8,34.4c3,5.8,2.7,12.5-0.7,18
							C430.5,346.2,424.6,349.4,418.2,349.4z"/>
						<path class="st4" d="M420.3,273.9c-0.2-0.3-0.4-0.6-0.6-0.9c-0.3-0.5-0.7-0.9-1.1-1.3c-0.3-0.3-0.7-0.6-1.1-0.9
							c-1-0.7-2-1.2-3.2-1.6c-0.2-0.1-0.5-0.1-0.7-0.2c-1.1-0.3-2.3-0.4-3.5-0.5c-3.2-0.3-6.7,0-9.6,1.1c-1.1,0.4-2.1,0.9-3,1.6
							c-0.1,0.1-0.2,0.1-0.3,0.2c-0.3,0.2-0.5,0.4-0.7,0.6c-0.5,0.4-0.9,1-1.3,1.6c-1.1,1.6-1.8,3.9-1.3,7.1c0.7,3.8,2.5,6.9,5.4,9
							c2.4,1.7,5.4,2.7,8.7,2.9c0.4,0,0.7,0,1.1,0c0.8,0,1.6,0,2.4-0.1c1.3-0.2,2.7-0.4,3.9-0.9c0.9-0.3,1.7-0.7,2.5-1.2
							c1.6-1,2.8-2.3,3.3-4C421.6,284.8,423.1,278.7,420.3,273.9z M401,276.8c0.5-0.4,1.1-0.8,1.9-1.1c1.3-0.5,3-0.7,4.8-0.7
							c0.9,0,1.9,0.1,2.8,0.2c0.5,0.1,1,0.2,1.5,0.3c1.2,0.3,2,0.8,2.5,1.7c0.7,1.2,0.9,3.1,0.6,5.2c-0.1,0.7-0.2,1.4-0.4,2.1
							c-0.4,0.4-1.6,1-3.3,1.3c-1.5,0.3-3.4,0.3-5.3-0.1c-1.7-0.4-3-1.1-4-2.1c-1-1-1.6-2.4-1.9-4C400.1,278,400.6,277.3,401,276.8z
							"/>
						<path class="st4" d="M397.2,276.1c-0.3-0.3-7.9-8.1-3.9-17c1.5-3.4,4.5-6,8.5-7.1c5.1-1.5,11.3-0.6,15.7,2.3
							c3.6,2.3,5.4,6.6,4.9,11.4c-0.4,4-2.5,8.8-6.4,10.4l-2.5-6.1c0.7-0.3,2-2.1,2.3-4.9c0.1-1.4,0.1-3.9-2-5.2
							c-2.8-1.8-7.1-2.4-10.3-1.5c-2.1,0.6-3.6,1.8-4.3,3.5c-2.1,4.7,2.5,9.6,2.5,9.6L397.2,276.1z"/>
						<path class="st4" d="M344.5,296.8l-1.8-1.1c-0.1,0-5.4-3.4-10.9-6.9c-11.5-7.4-12.3-8.4-12.8-9l5.2-4.1
							c-0.1-0.1-0.1-0.1-0.1-0.1c1.3,1.3,11,7.6,20.3,13.4l19-12.7l3.7,5.5L344.5,296.8z"/>
						<path class="st4" d="M341.4,349.7c-6.8,0-10.5-1.6-10.8-1.7l2.8-6l0,0c0.1,0,7.1,3,20.3-0.6l1.7,6.4
							C349.8,349.2,345.1,349.7,341.4,349.7z"/>
						<path class="st4" d="M110.2,325.8c-1.6,0-5.3-0.2-9.3-1.9c-4.8-2-11.1-6.6-13.6-17c-2.8-11.7-1.3-23.3,4.2-30.8
							c3.6-5,8.7-7.9,14.6-8.4c7.8-0.6,14,1.8,16.9,6.8c2.7,4.5,2.2,10.4-1.3,15.6l-5.5-3.6c2.1-3.1,2.5-6.3,1.1-8.6
							c-1.6-2.7-5.5-4-10.7-3.6c-4,0.3-7.3,2.2-9.8,5.7c-4.3,5.9-5.5,15.7-3.1,25.4c3.5,14.5,16.3,13.9,16.8,13.9l0.4,6.6
							C111,325.8,110.7,325.8,110.2,325.8z"/>
						<path class="st4" d="M127.1,294.5c-0.2-3.1-1.5-5.7-3.6-7.7c-0.4-0.3-0.7-0.6-1.1-0.9c-1.6-1.1-3.2-1.8-4.8-2.2
							c-7.5-1.9-14.8,2.6-15.1,2.9l3.6,5.6c0.1,0,7.2-4.5,12.5-0.8c1.2,0.8,1.8,2,2,3.7c0.1,2-0.5,4.2-1.2,5.8
							c-0.3,0.7-0.7,1.3-1,1.8c-0.2,0-0.4-0.1-0.6-0.1c-3-0.6-9.3-1.9-13.1,3.7l-0.7,1.1l0.2,1.3c0,0.2,0.8,4.7,2.1,10
							c0.1,0.3,0.2,0.7,0.2,1c0,0.2,0.1,0.3,0.1,0.5c0.1,0.4,0.2,0.8,0.3,1.2c0.1,0.6,0.3,1.1,0.4,1.7c0,0,0,0.1,0,0.1
							c0.2,0.9,0.5,1.7,0.7,2.5c2,6.9,3.6,9.2,4.8,10.3c2,1.9,3.9,2.5,5.4,2.5c1.2,0,2.1-0.3,2.6-0.6c0.2-0.1,0.4-0.2,0.5-0.3
							c2.8-1.8,4.1-5.8,3.4-11.2c-0.6-4.9-2.1-12.9-3.1-17.8c0.5-0.3,0.9-0.7,1.3-1.2c0.7-0.8,1.3-1.7,1.8-2.7
							c0.2-0.5,0.5-0.9,0.7-1.4c0.4-1,0.8-2,1-2.8c0,0,0,0,0,0c0.2-0.6,0.3-1.2,0.4-1.7C127.1,297.3,127.2,295.9,127.1,294.5z
							 M117.9,331.6c-0.1-0.1-0.3-0.2-0.5-0.4c-0.2-0.2-1.9-2-4.4-12.5c-0.9-3.9-1.7-7.6-2.1-9.6c0.9-0.6,2.1-0.7,4-0.4
							c0.9,4.6,2.7,13.5,3.3,18.5C118.4,329.5,118.1,331,117.9,331.6z"/>
						<path class="st4" d="M123.8,303.9l-1.8-6.4c0,0,2.5-0.8,4.6-2.5c2.4-2.1,3.2-4.5,2.3-7.6c-0.9-3.4-2.5-5.6-4.8-6.5
							c-1.5-0.6-2.9-0.5-2.9-0.5l-0.9-6.5c0.3,0,3.1-0.4,6.4,1c3,1.2,6.9,4.1,8.6,11c1.4,5.6-0.2,10.7-4.7,14.4
							C127.5,302.8,124.1,303.8,123.8,303.9z"/>
						<path class="st4" d="M124.9,299.2l0.3,0.3l0.3,0.2c0.2,0.2,0.3,0.3,0.5,0.5c0.3,0.3,0.7,0.6,1,1c0.3,0.3,0.6,0.7,0.9,1
							c0.3,0.3,0.6,0.7,0.9,1c1.2,1.4,2.3,2.8,3.3,4.3c0.5,0.7,1,1.5,1.4,2.3c0.2,0.4,0.5,0.8,0.7,1.2c0.2,0.4,0.4,0.8,0.6,1.2
							c0.4,0.8,0.8,1.6,1.2,2.4l0.5,1.2c0.2,0.4,0.3,0.8,0.5,1.3c0.2,0.4,0.3,0.8,0.5,1.3c0.1,0.4,0.3,0.8,0.4,1.3
							c0.1,0.4,0.3,0.9,0.4,1.3c0.1,0.4,0.2,0.9,0.4,1.3c0.1,0.4,0.2,0.9,0.3,1.3c0.1,0.4,0.2,0.9,0.3,1.3c0.1,0.4,0.1,0.9,0.2,1.3
							c0.1,0.4,0.1,0.9,0.1,1.4c0.1,0.9,0.1,1.8,0.1,2.7c0,0.5,0,0.9-0.1,1.4l0,0.7l-0.1,0.7c-0.1,0.4-0.1,0.9-0.2,1.3
							c-0.1,0.4-0.2,0.9-0.3,1.3c-0.1,0.2-0.1,0.4-0.2,0.7c-0.1,0.2-0.1,0.4-0.2,0.6c-0.2,0.4-0.3,0.9-0.5,1.3
							c-0.7-1.7-1.2-3.3-1.8-4.9c-0.3-0.8-0.6-1.6-0.9-2.3c-0.3-0.8-0.6-1.5-0.9-2.3c-0.6-1.5-1.2-3-1.8-4.5
							c-0.2-0.4-0.3-0.7-0.5-1.1c-0.2-0.4-0.3-0.7-0.5-1.1c-0.2-0.4-0.3-0.7-0.5-1.1c-0.2-0.4-0.4-0.7-0.5-1.1
							c-1.5-2.8-3.1-5.6-4.9-8.2c-0.9-1.3-1.8-2.6-2.7-3.9c-0.5-0.6-0.9-1.3-1.4-1.9c-0.2-0.3-0.5-0.6-0.7-0.9l-0.4-0.5l-0.2-0.2
							l-0.1-0.1c0,0-0.1-0.1-0.1-0.1L124.9,299.2z"/>
						<path class="st4" d="M131.5,312.2l-4.1-5.2l2.1,2.6l-2.1-2.6c0.1-0.1,7.5-6,12.8-13.9l5.5,3.7
							C139.8,305.6,131.8,311.9,131.5,312.2z"/>
						<path class="st4" d="M96.3,312.9l0,0.4l0,0.4l0,0.9c0,0.6,0,1.2-0.1,1.8c0,1.2,0,2.5,0,3.7c0.1,2.5,0.2,4.9,0.5,7.4
							c0.5,4.9,1.5,9.7,3.1,14.2c0.8,2.3,1.8,4.4,2.9,6.5c1.1,2,2.5,3.9,4,5.6c0.8,0.8,1.6,1.6,2.4,2.4c0.9,0.7,1.8,1.4,2.7,2
							c1,0.6,1.9,1.1,3,1.6l1.6,0.7c0.1,0.1,0.3,0.1,0.4,0.2l0.4,0.1l0.8,0.3c2.2,0.7,4.5,1.1,6.7,1.2c2.2,0.1,4.5,0,6.7-0.4
							c2.2-0.4,4.4-0.9,6.5-1.7c0.3-0.1,0.5-0.2,0.8-0.3l0.8-0.3c0.1-0.1,0.3-0.1,0.4-0.2l0.4-0.2l0.8-0.4c1-0.5,2.1-1.1,3.1-1.7
							c4-2.5,7.7-5.8,11-9.5c1.7-1.9,3.2-3.8,4.7-5.9c0.4-0.5,0.7-1,1.1-1.6l1-1.6c0.3-0.5,0.7-1.1,1-1.6c0.3-0.6,0.6-1.1,1-1.7
							c-1.2,5-3.2,9.9-5.9,14.4c-2.7,4.5-6.1,8.7-10.4,12.2c-1.1,0.9-2.2,1.7-3.3,2.5c-1.2,0.8-2.4,1.5-3.6,2.1
							c-2.5,1.3-5.2,2.2-8.1,2.7c-0.7,0.1-1.4,0.2-2.1,0.3c-0.7,0.1-1.4,0.1-2.2,0.1l-2.2,0c-0.7,0-1.4-0.1-2.1-0.2
							c-2.8-0.3-5.6-1.1-8.2-2l-1-0.4l-0.5-0.2c-0.2-0.1-0.3-0.1-0.5-0.2l-1.9-0.8c-1.3-0.6-2.6-1.3-3.8-2c-2.4-1.5-4.6-3.4-6.5-5.5
							c-1.9-2.1-3.5-4.4-4.8-6.8c-1.4-2.4-2.4-4.9-3.4-7.5c-1.8-5.1-2.9-10.4-3.5-15.6c-0.3-2.6-0.5-5.3-0.5-7.9c0-1.3,0-2.6,0-4
							c0-0.7,0-1.3,0.1-2l0-1l0-0.5l0-0.5L96.3,312.9z"/>
						<path class="st4" d="M111.3,152.8c-4.6-5-10.3-7.7-16.5-8c-5.8-0.2-11,1-15.3,3.4c-2,1.2-3.9,2.6-5.6,4.3
							c-4.7,4.9-7.5,11.9-8.1,20.4c-0.2,2.7-0.2,5.6,0.1,8.7c1.7,21.5,26.1,60.5,32.3,70.1c0.7,1.2,1.2,1.9,1.4,2.1l0.1,0.1l2.8,3.7
							l4.2,5.4l1.9-6.1c0-0.1,0-0.2,0.1-0.3c0.3-1.1,1.4-4.7,2.9-9.9c3.8-13.7,10-38.2,10.8-55.3C123,175.3,119,161.2,111.3,152.8z
							 M115.7,191.1c-0.4,8.3-2.2,18.7-4.3,28.7c-1.7,7.7-3.5,15.1-5.2,21.2c-0.5,1.7-0.9,3.4-1.3,4.8c-0.3,1-0.5,2-0.8,2.8
							c-0.3-0.5-0.7-1.2-1.2-1.9c-0.9-1.4-2-3.2-3.3-5.3c-2.9-4.6-6.5-10.8-10.2-17.6c-7.9-14.4-15.9-31.5-16.8-42.7
							c-0.8-10.6,1.3-18.9,6.2-24c0.1-0.1,0.2-0.2,0.3-0.3c1.6-1.6,3.5-2.8,5.6-3.7c2-0.8,4.1-1.4,6.4-1.6c0.8-0.1,1.7-0.1,2.5-0.1
							c0.4,0,0.7,0,1.1,0c1.3,0.1,2.6,0.3,3.8,0.6c2.9,0.9,5.6,2.6,8,5.2C112.9,164.3,116.3,176.9,115.7,191.1z"/>
						<path class="st4" d="M111.1,191.3c-1-14.1-3.1-23.9-6.6-31c-1.7-3.3-3.6-6-6-8.2c-0.2-0.2-0.4-0.4-0.6-0.6
							c-2.7-2.3-5.8-4.1-9.5-5.3c-1.9-0.6-4,0.1-5.1,1.8c-0.9,1.4-2.7,4.5-4.2,9c-2.2,6.7-3.7,16.6-1.2,29.4
							c2,10.3,6.8,24.6,11.5,37.7c3.5,9.6,7,18.5,9.5,24.7c2,4.9,3.3,8.1,3.5,8.6l0.2,0.4l4.2,10l0.5,1.2l0.1-1.3l1.3-10.9l0-0.3
							c0.1-0.5,0.6-5.5,1.3-12.8c0.5-6.5,1.1-14.8,1.4-23.7C111.6,210.5,111.7,200.5,111.1,191.3z M84.3,185
							c-1.6-8.2-1.6-16,0.2-23.1c0.3-1.3,0.7-2.4,1-3.5c0.8-2.4,1.7-4.2,2.4-5.4c1.4,0.6,2.6,1.2,3.8,2c2.9,2,5.1,4.6,6.9,8.3
							c3.2,6.3,5,15.3,5.9,28.5c0.8,12.1,0.4,26.1-0.2,37.9c-0.3,4.6-0.6,8.9-0.9,12.6c-1.9-4.9-4.3-10.9-6.6-17.3
							C91.6,211.2,86.4,195.6,84.3,185z"/>
						
							<rect x="93" y="148.5" transform="matrix(0.9859 -0.1672 0.1672 0.9859 -32.5199 18.9485)" class="st4" width="6.6" height="108.2"/>
						<polygon class="st4" points="100.7,272.4 97.8,249 111,243 114,269.6 						"/>
						<g>
							<path class="st4" d="M166.3,464.8c-3.9,0-7.6-0.5-10.5-1.6c-6.5-2.4-7.6-6.6-7.7-8.9c-0.2-4,1.6-9.9,10.7-15.6
								c5-3.1,10-4.7,10.2-4.8l2,6.3l-1-3.1l1,3.1c-4.3,1.4-16.6,7-16.3,13.8c0.1,1.5,1.9,2.5,3.4,3c8.4,3.1,27.7,0.4,37.9-10.6
								l4.9,4.5c-5.4,5.8-13.4,10.3-22.7,12.5C174.1,464.3,170,464.8,166.3,464.8z"/>
							<path class="st4" d="M153.9,459L153.9,459l0.1-0.1l0-0.1l0.1-0.1l0.2-0.3c0.1-0.2,0.2-0.3,0.3-0.5c0.2-0.3,0.4-0.6,0.7-1
								c0.5-0.6,1-1.2,1.5-1.8c1-1.1,2.1-2.1,3.4-3c1.2-0.9,2.5-1.6,3.8-2.1c1.3-0.5,2.7-0.8,4.1-0.9c-1.2,0.6-2.3,1.4-3.2,2.3
								c-0.9,0.9-1.7,1.9-2.3,3c-0.6,1.1-1.2,2.2-1.6,3.3c-0.2,0.6-0.4,1.2-0.5,1.7c-0.1,0.3-0.1,0.6-0.2,0.9c0,0.1,0,0.3-0.1,0.4
								c0,0.1,0,0.1,0,0.2l0,0.1c0,0,0,0,0,0l0,0c0,0,0,0,0,0L153.9,459z"/>
						</g>
						<g>
							<path class="st4" d="M318.2,463.4c-3.7,0-7.7-0.5-11.7-1.4c-9.3-2.2-17.4-6.6-22.7-12.4l4.9-4.5c10.2,11,29.5,13.6,37.9,10.5
								c1.5-0.6,3.3-1.5,3.4-3c0.3-6.5-14-14.2-20.9-16.9l2.4-6.2c0.3,0.1,6.2,2.4,12.2,6.2c8.8,5.5,13.1,11.3,12.9,17.1
								c-0.1,2.3-1.2,6.6-7.7,9C325.8,462.9,322.2,463.4,318.2,463.4z"/>
							<path class="st4" d="M324.4,459.8C324.4,459.8,324.4,459.8,324.4,459.8L324.4,459.8C324.4,459.8,324.4,459.8,324.4,459.8
								l0-0.1c0-0.1,0-0.1,0-0.2c0-0.1,0-0.3-0.1-0.4c-0.1-0.3-0.1-0.6-0.2-0.9c-0.1-0.6-0.3-1.2-0.5-1.7c-0.4-1.1-0.9-2.3-1.6-3.3
								c-0.6-1.1-1.4-2.1-2.3-3c-0.9-0.9-2-1.7-3.2-2.3c1.4,0.1,2.7,0.4,4.1,0.9c1.3,0.5,2.6,1.2,3.9,2.1c1.2,0.9,2.3,1.9,3.4,3
								c0.5,0.6,1,1.1,1.5,1.8c0.2,0.3,0.5,0.6,0.7,1c0.1,0.2,0.2,0.3,0.3,0.5l0.2,0.3l0.1,0.1l0,0.1l0,0l0,0.1L324.4,459.8z"/>
						</g>
					</g>
				</g>
			</g>
		</g>
	</g>
</g>
</svg>
